The black-and-white silent film Siren of the Tropics features the film debut of international star Josephine Baker. Surrealist filmmaker Luis Buñuel is credited as the assistant director, but he allegedy quit the production before it was finished. Set in the West Indies but filmed in France, a man named Berval saves a native girl, Papitou (Baker), making her his willing slave. Even though he is engaged to Denise, Papitou falls for him and follows his ship back to Paris. At first she finds work as a nurse, but she eventually becomes a dance hall star and returns to her native land. Starring Regina Dalthy, Pierre Batcheff, and Georges Melchior. Only portions of this 1927 film still exist. 


 
http://www.imdb.com/title/tt0135652/

 
http://en.wikipedia.org/wiki/Josephine_Baker



Directors:
Henri Étiévant-Mario Nalpas 



	Josephine Baker	 ... 	Papitou
	Pierre Batcheff	... 	André Berval
	Régina Dalthy	... 	Marquise Severo
	Regina Thomas	... 	Denise
	Georges Melchior... 	Comte Severo


 Video
      Format : MPEG-4 Visual
      Format settings, BVOP : Yes
      Format settings, QPel : No
      Format settings, GMC : No warppoints
      Format settings, Matrix : Default (H.263)
      Muxing mode : Packed bitstream
      Codec ID : DX50
      Codec ID/Hint : DivX 5
      Duration : 1h 26mn
      Bit rate : 1 819 Kbps
      Width : 640 pixels
      Height : 480 pixels
      Display aspect ratio : 4/3
      Frame rate : 30.000 fps
      Resolution : 24 bits
      Colorimetry : 4:2:0
      Scan type : Progressive
      Bits/(Pixel*Frame) : 0.197
      Stream size : 1.10 GiB (93%)
      Writing library : DivX 6.8.5
   Audio
      Format : MPEG Audio
      Format version : Version 1
      Format profile : Layer 3
      Codec ID : 55
      Codec ID/Hint : MP3
      Duration : 1h 26mn
      Bit rate mode : Constant
      Bit rate : 128 Kbps
      Channel(s) : 2 channels
      Sampling rate : 44.1 KHz
      Resolution : 16 bits
      Stream size : 79.5 MiB (7%)
      Alignment : Split accross interleaves
      Interleave, duration : 33 ms (1.00 video frame)
      Interleave, preload duration : 500 ms
      Writing library : LAME3.98.2


Please seed at least as much as you D/L.
=======================================
Thanks 

John